<?xml version="1.0" encoding="UTF-8"?>
<svg xmlns="http://www.w3.org/2000/svg" xmlns:xlink="http://www.w3.org/1999/xlink" width="20pt" height="22pt" viewBox="0 0 20 22" version="1.1">
<g id="surface1">
<path style=" stroke:none;fill-rule:nonzero;fill:rgb(100%,100%,100%);fill-opacity:1;" d="M 8.570312 7.933594 L 8.570312 17.050781 C 8.570312 17.328125 8.332031 17.554688 8.035156 17.554688 L 6.964844 17.554688 C 6.667969 17.554688 6.429688 17.328125 6.429688 17.050781 L 6.429688 7.933594 C 6.429688 7.652344 6.667969 7.425781 6.964844 7.425781 L 8.035156 7.425781 C 8.332031 7.425781 8.570312 7.652344 8.570312 7.933594 Z M 13.035156 7.425781 L 11.964844 7.425781 C 11.667969 7.425781 11.429688 7.652344 11.429688 7.933594 L 11.429688 17.050781 C 11.429688 17.328125 11.667969 17.554688 11.964844 17.554688 L 13.035156 17.554688 C 13.332031 17.554688 13.570312 17.328125 13.570312 17.050781 L 13.570312 7.933594 C 13.570312 7.652344 13.332031 7.425781 13.035156 7.425781 Z M 18.929688 3.375 C 19.519531 3.375 20 3.828125 20 4.390625 L 20 4.894531 C 20 5.175781 19.761719 5.402344 19.464844 5.402344 L 18.570312 5.402344 L 18.570312 19.582031 C 18.570312 20.703125 17.613281 21.605469 16.429688 21.605469 L 3.570312 21.605469 C 2.386719 21.605469 1.429688 20.703125 1.429688 19.582031 L 1.429688 5.402344 L 0.535156 5.402344 C 0.238281 5.402344 0 5.175781 0 4.894531 L 0 4.390625 C 0 3.828125 0.480469 3.375 1.070312 3.375 L 4.394531 3.375 L 5.910156 0.980469 C 6.300781 0.371094 6.996094 0 7.75 0 L 12.25 0 C 13.003906 0 13.699219 0.371094 14.089844 0.980469 L 15.605469 3.375 Z M 6.890625 3.375 L 13.109375 3.375 L 12.328125 2.148438 C 12.28125 2.070312 12.191406 2.027344 12.097656 2.027344 L 7.902344 2.027344 C 7.808594 2.027344 7.71875 2.070312 7.671875 2.148438 Z M 16.429688 5.402344 L 3.570312 5.402344 L 3.570312 19.328125 C 3.570312 19.464844 3.691406 19.582031 3.839844 19.582031 L 16.160156 19.582031 C 16.308594 19.582031 16.429688 19.464844 16.429688 19.328125 Z M 16.429688 5.402344 "/>
</g>
</svg>
