<?xml version="1.0" encoding="UTF-8"?>
<svg xmlns="http://www.w3.org/2000/svg" xmlns:xlink="http://www.w3.org/1999/xlink" width="19pt" height="19pt" viewBox="0 0 19 19" version="1.1">
<g id="surface1">
<path style=" stroke:none;fill-rule:nonzero;fill:rgb(100%,100%,100%);fill-opacity:1;" d="M 18.945312 9.492188 C 16.347656 9.460938 14.25 7.351562 14.25 4.75 C 11.648438 4.75 9.539062 2.652344 9.507812 0.0546875 C 8.496094 -0.0976562 7.460938 0.0664062 6.546875 0.53125 L 3.984375 1.839844 C 3.058594 2.308594 2.308594 3.058594 1.839844 3.984375 L 0.535156 6.539062 C 0.0664062 7.464844 -0.101562 8.519531 0.0585938 9.542969 L 0.507812 12.375 C 0.671875 13.398438 1.152344 14.347656 1.886719 15.082031 L 3.921875 17.113281 C 4.652344 17.847656 5.597656 18.328125 6.617188 18.488281 L 9.464844 18.941406 C 10.484375 19.101562 11.53125 18.9375 12.453125 18.464844 L 15.019531 17.160156 C 15.941406 16.6875 16.691406 15.9375 17.164062 15.015625 L 18.464844 12.457031 C 18.933594 11.542969 19.097656 10.507812 18.945312 9.492188 Z M 6.53125 13.65625 C 5.875 13.65625 5.34375 13.125 5.34375 12.46875 C 5.34375 11.8125 5.875 11.28125 6.53125 11.28125 C 7.1875 11.28125 7.71875 11.8125 7.71875 12.46875 C 7.71875 13.125 7.1875 13.65625 6.53125 13.65625 Z M 7.71875 7.71875 C 7.0625 7.71875 6.53125 7.1875 6.53125 6.53125 C 6.53125 5.875 7.0625 5.34375 7.71875 5.34375 C 8.375 5.34375 8.90625 5.875 8.90625 6.53125 C 8.90625 7.1875 8.375 7.71875 7.71875 7.71875 Z M 13.65625 12.46875 C 13 12.46875 12.46875 11.9375 12.46875 11.28125 C 12.46875 10.625 13 10.09375 13.65625 10.09375 C 14.3125 10.09375 14.84375 10.625 14.84375 11.28125 C 14.84375 11.9375 14.3125 12.46875 13.65625 12.46875 Z M 13.65625 12.46875 "/>
</g>
</svg>
