<?xml version="1.0" encoding="UTF-8"?>
<svg xmlns="http://www.w3.org/2000/svg" xmlns:xlink="http://www.w3.org/1999/xlink" width="20pt" height="20pt" viewBox="0 0 20 20" version="1.1">
<g id="surface1">
<path style=" stroke:none;fill-rule:nonzero;fill:rgb(100%,100%,100%);fill-opacity:1;" d="M 7.210938 10.230469 C 7.335938 10.777344 6.734375 11.191406 6.269531 10.902344 L 4.679688 9.90625 L 2.691406 13.085938 C 2.171875 13.917969 2.773438 15 3.75 15 L 5.78125 15 C 6.039062 15 6.25 15.210938 6.25 15.46875 L 6.25 17.03125 C 6.25 17.289062 6.039062 17.5 5.78125 17.5 L 3.753906 17.5 C 0.8125 17.5 -0.984375 14.257812 0.574219 11.761719 L 2.558594 8.582031 L 0.96875 7.589844 C 0.496094 7.292969 0.617188 6.574219 1.160156 6.449219 L 5.464844 5.457031 C 5.800781 5.378906 6.136719 5.589844 6.214844 5.925781 Z M 11.058594 3.085938 L 12.671875 5.667969 L 11.082031 6.660156 C 10.609375 6.953125 10.730469 7.675781 11.273438 7.800781 L 15.578125 8.792969 C 15.917969 8.871094 16.25 8.660156 16.328125 8.324219 L 17.320312 4.019531 C 17.445312 3.480469 16.851562 3.054688 16.382812 3.347656 L 14.792969 4.34375 L 13.179688 1.761719 C 11.714844 -0.585938 8.289062 -0.589844 6.820312 1.761719 L 6.117188 2.882812 C 5.980469 3.105469 6.046875 3.394531 6.265625 3.53125 L 7.59375 4.359375 C 7.8125 4.496094 8.101562 4.429688 8.238281 4.210938 L 8.941406 3.085938 C 9.4375 2.292969 10.578125 2.316406 11.058594 3.085938 Z M 19.425781 11.761719 L 18.351562 10.042969 C 18.214844 9.820312 17.925781 9.753906 17.703125 9.890625 L 16.382812 10.71875 C 16.164062 10.855469 16.09375 11.144531 16.234375 11.363281 L 17.308594 13.085938 C 17.828125 13.917969 17.230469 15 16.25 15 L 12.5 15 L 12.5 13.125 C 12.5 12.570312 11.828125 12.289062 11.433594 12.683594 L 8.308594 15.808594 C 8.0625 16.050781 8.0625 16.449219 8.308594 16.691406 L 11.433594 19.816406 C 11.824219 20.207031 12.5 19.933594 12.5 19.375 L 12.5 17.5 L 16.246094 17.5 C 19.1875 17.5 20.984375 14.257812 19.425781 11.761719 Z M 19.425781 11.761719 "/>
</g>
</svg>
