<?xml version="1.0" encoding="UTF-8"?>
<svg xmlns="http://www.w3.org/2000/svg" xmlns:xlink="http://www.w3.org/1999/xlink" width="20pt" height="16pt" viewBox="0 0 20 16" version="1.1">
<g id="surface1">
<path style=" stroke:none;fill-rule:nonzero;fill:rgb(100%,100%,100%);fill-opacity:1;" d="M 4 4 C 5.101562 4 6 3.101562 6 2 C 6 0.898438 5.101562 0 4 0 C 2.898438 0 2 0.898438 2 2 C 2 3.101562 2.898438 4 4 4 Z M 16 4 C 17.101562 4 18 3.101562 18 2 C 18 0.898438 17.101562 0 16 0 C 14.898438 0 14 0.898438 14 2 C 14 3.101562 14.898438 4 16 4 Z M 19.976562 11.078125 L 18.554688 5.273438 C 18.449219 4.851562 18.070312 4.554688 17.621094 4.515625 C 17.152344 4.820312 16.597656 5 15.996094 5 C 15.398438 5 14.839844 4.820312 14.371094 4.515625 C 13.925781 4.554688 13.542969 4.851562 13.441406 5.273438 L 12.015625 11.078125 C 11.90625 11.550781 12.28125 12 12.789062 12 L 14.5 12 L 14.5 15.25 C 14.5 15.664062 14.835938 16 15.25 16 L 16.75 16 C 17.164062 16 17.5 15.664062 17.5 15.25 L 17.5 12 L 19.210938 12 C 19.71875 12 20.09375 11.550781 19.976562 11.078125 Z M 10.5 0 L 9.5 0 C 9.226562 0 9 0.226562 9 0.5 L 9 15.5 C 9 15.773438 9.226562 16 9.5 16 L 10.5 16 C 10.773438 16 11 15.773438 11 15.5 L 11 0.5 C 11 0.226562 10.773438 0 10.5 0 Z M 5.628906 4.511719 C 5.160156 4.820312 4.601562 5 4 5 C 3.398438 5 2.839844 4.820312 2.371094 4.511719 C 1.601562 4.578125 1 5.214844 1 6 L 1 10.25 C 1 10.664062 1.335938 11 1.75 11 L 2 11 L 2 15.25 C 2 15.664062 2.335938 16 2.75 16 L 5.25 16 C 5.664062 16 6 15.664062 6 15.25 L 6 11 L 6.25 11 C 6.664062 11 7 10.664062 7 10.25 L 7 6 C 7 5.214844 6.398438 4.578125 5.628906 4.511719 Z M 5.628906 4.511719 "/>
</g>
</svg>
